<?xml version="1.0" standalone="no"?>
<!DOCTYPE svg PUBLIC "-//W3C//DTD SVG 20010904//EN"
 "http://www.w3.org/TR/2001/REC-SVG-20010904/DTD/svg10.dtd">
<svg version="1.0" xmlns="http://www.w3.org/2000/svg"
 width="750.000000pt" height="750.000000pt" viewBox="0 0 750.000000 750.000000"
 preserveAspectRatio="xMidYMid meet">
<metadata>
Created by potrace 1.16, written by Peter Selinger 2001-2019
</metadata>
<g transform="translate(0.000000,750.000000) scale(0.100000,-0.100000)"
fill="#812323" stroke="none">
<path d="M3195 7275 c-49 -8 -110 -14 -134 -14 -25 -1 -52 -7 -60 -14 -20 -17
-79 -33 -151 -42 -30 -4 -65 -13 -78 -21 -12 -8 -65 -26 -118 -39 -52 -14
-112 -34 -132 -44 -20 -10 -48 -22 -62 -26 -87 -26 -369 -165 -487 -240 -235
-151 -275 -181 -458 -341 -446 -390 -742 -827 -949 -1399 -89 -246 -130 -457
-187 -960 -11 -94 2 -382 21 -460 5 -22 19 -107 30 -190 33 -243 117 -531 231
-793 118 -272 313 -578 511 -804 130 -148 396 -405 410 -396 7 4 23 8 35 8 18
0 25 12 43 72 12 40 37 102 55 138 18 36 48 97 65 135 18 39 62 131 97 205 36
74 94 196 128 270 35 74 91 194 125 265 92 191 177 370 217 455 64 136 115
244 140 295 22 45 161 338 307 650 31 66 61 129 67 139 6 11 44 89 84 175 40
86 100 212 133 281 124 259 192 402 192 406 0 1 33 72 74 156 115 241 156 333
156 356 0 39 19 33 50 -15 16 -26 66 -129 111 -228 45 -99 94 -207 109 -240
15 -33 80 -177 143 -320 93 -212 226 -508 357 -800 56 -125 258 -574 295 -655
23 -52 84 -187 135 -300 50 -113 129 -288 175 -390 46 -102 134 -297 195 -435
108 -241 139 -310 217 -477 34 -74 35 -78 19 -102 -9 -14 -35 -36 -58 -49 -24
-13 -86 -49 -138 -78 -52 -30 -122 -66 -155 -80 -33 -14 -80 -35 -105 -46 -25
-11 -70 -28 -100 -38 -30 -9 -74 -26 -97 -36 -23 -11 -92 -33 -155 -49 -62
-17 -138 -37 -168 -45 -30 -9 -109 -20 -175 -26 -66 -5 -142 -16 -170 -24
-152 -45 -420 -45 -610 0 -33 8 -112 19 -175 25 -63 5 -140 17 -170 26 -30 9
-104 28 -165 43 -60 15 -124 35 -142 44 -18 10 -61 24 -97 32 -92 21 -95 23
-107 65 -13 44 -6 74 51 195 21 44 55 118 75 165 45 102 126 282 166 367 16
34 29 65 29 69 0 4 11 30 24 58 13 28 47 103 76 166 28 63 82 183 120 265 37
83 85 188 105 235 20 47 52 118 71 158 19 40 34 75 34 77 0 3 36 85 81 182 44
98 93 207 109 243 73 168 166 374 211 467 36 76 49 113 49 147 0 44 -1 45 -37
52 -48 9 -113 34 -113 44 0 14 -57 31 -96 28 -38 -3 -39 -4 -50 -55 -11 -50
-81 -214 -224 -528 -17 -38 -56 -124 -85 -190 -29 -66 -66 -149 -83 -185 -17
-36 -47 -103 -67 -150 -21 -47 -72 -161 -115 -255 -43 -93 -110 -244 -150
-335 -40 -91 -105 -237 -145 -325 -40 -88 -103 -230 -140 -315 -37 -85 -99
-222 -137 -305 -39 -82 -79 -172 -90 -200 -11 -27 -33 -74 -50 -104 -22 -38
-31 -66 -30 -97 0 -52 5 -60 36 -68 14 -3 58 -21 98 -40 171 -79 322 -135 488
-180 47 -12 94 -27 105 -33 27 -15 227 -50 355 -62 58 -6 125 -18 150 -28 67
-25 534 -31 635 -8 39 9 124 23 190 31 503 62 1045 277 1404 558 46 36 88 66
92 66 4 0 11 20 15 45 5 39 2 54 -21 98 -15 29 -46 97 -70 152 -24 55 -57 129
-73 165 -17 36 -53 117 -82 180 -28 63 -65 143 -81 178 -16 34 -29 64 -29 66
0 3 -18 42 -39 88 -21 46 -60 130 -86 188 -26 58 -58 128 -70 155 -13 28 -40
88 -61 135 -20 47 -54 122 -75 168 -22 46 -39 85 -39 87 0 2 -15 37 -34 77
-18 40 -52 116 -75 168 -23 52 -60 132 -82 177 -21 45 -39 85 -39 89 0 4 -9
26 -19 48 -11 23 -45 97 -76 166 -31 69 -70 153 -86 188 -16 34 -29 65 -29 68
0 3 -15 38 -34 77 -19 40 -50 110 -71 157 -20 47 -54 122 -76 168 -21 45 -39
84 -39 87 0 2 -15 37 -34 77 -19 40 -51 111 -71 158 -21 47 -52 117 -70 155
-18 39 -35 80 -39 92 -4 12 -22 52 -40 90 -18 37 -37 79 -41 93 -4 14 -11 30
-15 35 -8 10 -25 49 -152 340 -38 88 -78 174 -89 191 -21 35 -28 146 -8 141
12 -2 101 143 127 208 8 22 21 49 28 60 37 62 49 130 49 285 0 172 -5 189 -77
256 -84 79 -85 79 -273 79 l-170 0 -55 -37 c-85 -57 -143 -160 -157 -278 -10
-90 37 -296 110 -475 50 -120 50 -179 3 -272 -19 -38 -111 -230 -204 -428 -93
-198 -193 -409 -222 -470 -78 -165 -310 -653 -462 -975 -75 -157 -167 -350
-206 -430 -38 -80 -83 -174 -99 -210 -17 -36 -73 -155 -125 -265 -53 -110
-115 -240 -138 -290 -313 -663 -358 -755 -371 -755 -5 0 -16 14 -24 31 -9 16
-62 87 -118 157 -177 221 -322 462 -434 719 -42 95 -121 347 -128 406 -4 32
-17 80 -30 105 -16 33 -24 73 -29 137 -3 50 -13 166 -23 260 -14 149 -15 196
-4 385 20 346 33 460 57 500 12 20 24 62 28 97 4 35 16 89 27 120 11 32 32 96
48 143 124 363 364 755 645 1051 336 355 766 628 1222 778 104 35 214 67 244
72 30 6 75 16 100 24 25 7 117 23 205 35 291 40 807 23 965 -31 30 -10 80 -22
110 -25 30 -4 80 -16 110 -26 30 -11 89 -30 131 -42 253 -75 663 -290 868
-454 160 -128 302 -256 388 -349 361 -395 589 -823 718 -1348 37 -149 44 -183
56 -280 17 -145 24 -615 9 -701 -6 -38 -15 -119 -19 -181 -5 -62 -13 -119 -20
-126 -14 -17 -41 -104 -41 -134 0 -12 -23 -93 -51 -180 -80 -246 -241 -579
-356 -735 -24 -33 -48 -70 -53 -84 -11 -28 -28 -31 -37 -6 -27 79 -96 240
-183 427 -50 107 -96 210 -137 305 -25 58 -63 142 -84 186 -21 45 -39 84 -39
87 0 4 -15 39 -34 79 -18 40 -55 120 -81 178 -26 58 -58 129 -71 158 -13 29
-24 54 -24 57 0 2 -17 41 -39 87 -21 46 -57 126 -81 178 -24 52 -60 132 -81
178 -22 46 -39 85 -39 87 0 2 -13 32 -29 67 -16 35 -45 101 -66 148 -45 100
-127 284 -160 355 -12 28 -46 104 -75 170 -28 66 -62 143 -75 170 -12 28 -40
88 -60 135 -20 47 -57 128 -80 180 -24 53 -46 112 -50 131 -6 33 -10 37 -46
42 -44 6 -116 -8 -139 -27 -8 -6 -39 -23 -67 -36 -29 -13 -53 -27 -53 -31 0
-18 53 -145 145 -349 54 -118 130 -289 170 -380 40 -91 116 -262 170 -380 53
-118 119 -264 145 -325 52 -120 159 -360 210 -470 39 -84 295 -655 465 -1035
67 -151 134 -300 148 -330 66 -145 95 -210 176 -395 48 -110 91 -208 94 -218
7 -19 27 -15 27 5 0 6 21 34 48 62 140 152 330 407 429 574 169 288 315 641
354 857 5 33 19 78 29 100 12 24 23 83 30 150 12 119 27 213 42 260 17 50 23
425 8 497 -7 35 -16 99 -20 143 -23 212 -42 343 -56 372 -8 18 -23 73 -34 122
-17 82 -73 260 -105 336 -7 17 -20 50 -30 75 -182 451 -503 906 -852 1206
-225 195 -311 258 -508 375 -155 93 -378 205 -445 224 -14 4 -55 20 -91 36
-37 16 -97 36 -134 44 -38 9 -84 24 -104 34 -20 10 -63 22 -96 26 -33 4 -82
16 -110 27 -95 39 -234 49 -670 53 -301 2 -434 -1 -500 -10z m429 -711 c37
-14 5 -299 -32 -292 -9 2 -18 12 -21 23 -2 11 -16 36 -32 56 -31 39 -52 117
-47 171 3 30 6 34 43 39 60 9 72 10 89 3z"/>
</g>
</svg>
